<svg width="1064" height="584" viewBox="0 0 1064 584" fill="none" xmlns="http://www.w3.org/2000/svg">
<rect x="21.6719" y="17.3955" width="1021.51" height="548.527" stroke="#DCECF6" stroke-width="4"/>
<mask id="path-2-inside-1_447_7304" fill="white">
<path fill-rule="evenodd" clip-rule="evenodd" d="M0 545.602V37.3471C4.05005 38.6446 8.35973 39.3441 12.8296 39.3441C35.0335 39.3441 53.2852 22.0839 55.3919 0H1013.96C1013.91 0.848887 1013.89 1.70444 1013.89 2.56593C1013.89 26.1845 1033.03 45.3312 1056.65 45.3312C1059.16 45.3312 1061.61 45.1157 1064 44.7022V539.583C1061.88 539.26 1059.71 539.093 1057.51 539.093C1033.89 539.093 1014.74 558.24 1014.74 581.858C1014.74 582.347 1014.75 582.834 1014.77 583.318H60.7127C60.1261 560.211 41.2103 541.659 17.9614 541.659C11.5464 541.659 5.46121 543.071 0 545.602Z"/>
</mask>
<path d="M0 37.3471L3.0509 27.8239L-10 23.6428V37.3471H0ZM0 545.602H-10V561.258L4.2048 554.675L0 545.602ZM55.3919 0V-10H46.3005L45.4371 -0.949655L55.3919 0ZM1013.96 0L1023.94 0.590706L1024.57 -10H1013.96V0ZM1064 44.7022H1074V32.8216L1062.29 34.8489L1064 44.7022ZM1064 539.583L1062.49 549.469L1074 551.221V539.583H1064ZM1014.77 583.318V593.318H1025.11L1024.76 582.984L1014.77 583.318ZM60.7127 583.318L50.7159 583.572L50.9633 593.318H60.7127V583.318ZM-10 37.3471V545.602H10V37.3471H-10ZM12.8296 29.3441C9.40909 29.3441 6.12807 28.8097 3.0509 27.8239L-3.0509 46.8703C1.97202 48.4795 7.31037 49.3441 12.8296 49.3441V29.3441ZM45.4371 -0.949655C43.7998 16.2141 29.6688 29.3441 12.8296 29.3441V49.3441C40.3983 49.3441 62.7707 27.9537 65.3468 0.949655L45.4371 -0.949655ZM1013.96 -10H55.3919V10H1013.96V-10ZM1023.89 2.56593C1023.89 1.90144 1023.91 1.24288 1023.94 0.590706L1003.98 -0.590706C1003.92 0.454897 1003.89 1.50743 1003.89 2.56593H1023.89ZM1056.65 35.3312C1038.56 35.3312 1023.89 20.6617 1023.89 2.56593H1003.89C1003.89 31.7074 1027.51 55.3312 1056.65 55.3312V35.3312ZM1062.29 34.8489C1060.47 35.1652 1058.58 35.3312 1056.65 35.3312V55.3312C1059.73 55.3312 1062.76 55.0662 1065.71 54.5556L1062.29 34.8489ZM1074 539.583V44.7022H1054V539.583H1074ZM1057.51 549.093C1059.21 549.093 1060.87 549.222 1062.49 549.469L1065.51 529.697C1062.89 529.299 1060.22 529.093 1057.51 529.093V549.093ZM1024.74 581.858C1024.74 563.763 1039.41 549.093 1057.51 549.093V529.093C1028.37 529.093 1004.74 552.717 1004.74 581.858H1024.74ZM1024.76 582.984C1024.75 582.61 1024.74 582.234 1024.74 581.858H1004.74C1004.74 582.459 1004.75 583.058 1004.77 583.653L1024.76 582.984ZM60.7127 593.318H1014.77V573.318H60.7127V593.318ZM17.9614 551.659C35.7724 551.659 50.2666 565.873 50.7159 583.572L70.7095 583.065C69.9856 554.549 46.6481 531.659 17.9614 531.659V551.659ZM4.2048 554.675C8.37531 552.743 13.0281 551.659 17.9614 551.659V531.659C10.0647 531.659 2.5471 533.4 -4.2048 536.529L4.2048 554.675Z" fill="#DCECF6" mask="url(#path-2-inside-1_447_7304)"/>
</svg>
